<?xml version="1.0" encoding="UTF-8"?>
<!DOCTYPE svg PUBLIC "-//W3C//DTD SVG 1.1 Tiny//EN" "http://www.w3.org/Graphics/SVG/1.1/DTD/svg11-tiny.dtd">
<svg baseProfile="tiny" xmlns="http://www.w3.org/2000/svg" xmlns:xlink="http://www.w3.org/1999/xlink" width="50" height="50" viewBox="0 0 50 50">
<g>
<g>
<rect fill-opacity="0.6" stroke-opacity="0.6" fill="#FFFFFF" width="50" height="50"/>
<g>
<path fill="#FFFFFF" d="M27.107,10.47h-4.554L17.48,22.721l-4.279,10.358c-0.19,0.481-0.415,0.878-0.679,1.2       c-0.252,0.311-0.555,0.566-0.927,0.784c-0.124,0.076-0.343,0.184-0.81,0.28c-0.003,0.001-2.31,0.33-2.31,0.33l-0.102,1.143       v2.718h13.295v-3.912l-1.189-0.105c-1.607-0.144-2.272-0.364-2.525-0.482c-0.002-0.001-0.058-0.035-0.113-0.067       c0.013-0.111,0.026-0.224,0.026-0.224c0-0.005,0.358-1.263,0.358-1.263c-0.003,0.009,0.641-1.778,0.641-1.778       s0.183-0.471,0.359-0.924c1.294,0,6.005,0,7.275,0c0.455,1.105,1.633,3.961,1.799,4.365c-0.034,0.01-0.119,0.035-0.119,0.035       c-0.002,0-3.273,0.507-3.273,0.507l-0.105,1.131v2.718h15.521c1.306,0,1.306-0.965,1.306-2.718v-1.123l-1.221-0.179       l-1.04-0.158c-0.005-0.001-0.821-0.296-0.821-0.296c-0.384-0.228-0.59-0.427-0.693-0.553l-0.418-0.694       c0-0.001-3.464-8.501-3.464-8.501l-5.983-14.847L27.107,10.47z M22.833,21.711c0.815,2.034,1.297,3.241,1.869,4.669       c-1.41,0-2.305,0-3.711,0C21.552,24.956,22.03,23.747,22.833,21.711z"/>
<path d="M40.321,38.229H26.105v-1.412c0.666-0.048,1.446-0.169,2.346-0.36c0.898-0.19,1.348-0.429,1.348-0.713       c0-0.1-0.01-0.207-0.028-0.331c-0.019-0.123-0.07-0.29-0.155-0.501l-2.24-5.438h-9.043c-0.208,0.506-0.438,1.098-0.689,1.775       c-0.252,0.678-0.47,1.283-0.653,1.813c-0.234,0.691-0.373,1.189-0.415,1.499c-0.044,0.307-0.065,0.523-0.065,0.646       c0,0.396,0.297,0.732,0.891,1.01c0.592,0.277,1.581,0.478,2.963,0.601v1.412H9.679v-1.412c0.404-0.025,0.863-0.088,1.371-0.194       c0.509-0.104,0.91-0.248,1.205-0.433c0.503-0.294,0.929-0.653,1.279-1.084c0.35-0.429,0.641-0.938,0.874-1.528       c1.424-3.444,2.85-6.898,4.28-10.358c1.429-3.457,3.009-7.272,4.739-11.443h3.681c2.404,5.913,4.287,10.586,5.649,14.019       c1.362,3.436,2.522,6.282,3.479,8.539c0.158,0.366,0.36,0.702,0.605,1.002c0.246,0.3,0.596,0.586,1.051,0.855       c0.344,0.198,0.741,0.345,1.195,0.441c0.455,0.1,0.865,0.161,1.234,0.185L40.321,38.229L40.321,38.229z M26.631,27.685       l-3.807-9.507l-3.752,9.507H26.631z"/>
</g>
</g>
</g>
</svg>
