<?xml version="1.0" encoding="utf-8"?>
<!-- Generator: Adobe Illustrator 13.0.2, SVG Export Plug-In . SVG Version: 6.00 Build 14948)  -->
<svg version="1.2" baseProfile="tiny" id="Layer_1" xmlns="http://www.w3.org/2000/svg" xmlns:xlink="http://www.w3.org/1999/xlink"
	 x="0px" y="0px" width="110.833px" height="86.045px" viewBox="0 0 110.833 86.045" xml:space="preserve">
<linearGradient id="SVGID_1_" gradientUnits="userSpaceOnUse" x1="74.3335" y1="-43.248" x2="74.3335" y2="78.8777">
	<stop  offset="0" style="stop-color:#9E9E9E"/>
	<stop  offset="1" style="stop-color:#000000"/>
</linearGradient>
<rect x="39.333" y="1.5" fill="url(#SVGID_1_)" stroke="#FFFFFF" stroke-width="3" width="70" height="83.045"/>
<g>
	<circle fill="#FFFFFF" cx="77.678" cy="18.646" r="7.649"/>
	<polygon fill="#FFFFFF" points="91.569,38.979 104.856,39.18 105.057,44.213 89.355,45.018 79.893,37.167 76.874,51.259 
		95.394,78.437 87.14,78.034 69.828,56.091 67.21,67.968 40.033,69.78 40.435,63.739 60.567,62.129 61.319,53.474 67.412,33.544 
		61.171,35.758 49.04,45.473 45.617,40.843 56.339,31.127 69.14,26.188 80.752,29.516 	"/>
</g>
<g>
	<polyline fill="#FFFFFF" points="20.512,28.841 36.654,41.628 20.473,54.667 	"/>
	<rect y="36.871" fill="#FFFFFF" width="25.023" height="11.105"/>
</g>
</svg>
