<?xml version="1.0" encoding="utf-8"?>
<!-- Decoded by SVGB to SVG converter version 0.9.3 -->
<!DOCTYPE svg PUBLIC "-//W3C//DTD SVG 1.0//EN" "http://www.w3.org/TR/2001/REC-SVG-20010904/DTD/svg10.dtd">
<svg xmlns="http://www.w3.org/2000/svg" baseProfile="tiny" version="1.1" width="54" viewBox="0 0 54 54" height="54" x="0" y="0">
  <g>
    <rect width="54" fill="none" height="54"/>
    <path d="M49.059,25.115C49.008,24.009,48.567,22.933,47.733,22.111L32.983,7.36C32.194,6.507,31.059,6.079,29.928,6.081C28.756,6.07,27.642,6.524,26.821,7.36L26.531,7.652L26.531,7.692C25.829,8.469,25.53,9.481,25.545,10.463C25.538,11.256,25.743,12.028,26.147,12.691L15.67,21.841C14.918,21.349,14.031,21.104,13.109,21.112C11.829,21.099,10.641,21.548,9.769,22.441C8.831,23.364,8.386,24.57,8.396,25.778C8.386,27.018,8.819,28.224,9.723,29.115L15.99,35.385L5.822,45.555C5.383,45.984,5.053,46.647,5.061,47.39L5.061,47.452L5.066,47.503C5.127,48.073,5.344,48.677,5.771,49.167L6.069,49.516L6.186,49.516C6.619,49.836,7.154,49.988,7.643,49.988C7.664,49.988,7.683,49.988,7.704,49.987C8.349,50,9.05,49.731,9.542,49.224L19.684,39.079L25.976,45.374C26.851,46.261,28.036,46.713,29.315,46.698C30.561,46.711,31.727,46.257,32.629,45.394L32.945,45.098L32.945,45.006C33.646,44.173,34.033,43.111,34.025,41.985C34.029,41.052,33.75,40.16,33.246,39.391L42.426,28.959C43.078,29.342,43.815,29.558,44.576,29.597L44.621,29.597L44.684,29.597C45.83,29.547,46.854,29.097,47.682,28.364L48.026,28.066L48.026,27.953C48.672,27.177,49.016,26.218,49.059,25.218L49.061,25.165L49.059,25.115z" opacity="0.2" stroke-opacity="0.2"/>
    <path d="M47.028,22.819L32.276,8.068C31.665,7.409,30.819,7.082,29.928,7.082C28.989,7.082,28.188,7.409,27.531,8.068L27.531,8.115C26.826,8.725,26.545,9.523,26.545,10.464C26.545,11.403,26.873,12.201,27.531,12.814L15.693,23.148C14.988,22.443,14.142,22.114,13.108,22.114C12.027,22.114,11.182,22.443,10.478,23.148C9.725,23.9,9.396,24.792,9.396,25.778C9.396,26.812,9.725,27.705,10.43,28.409L17.407,35.387L6.531,46.262C6.25,46.543,6.061,46.919,6.061,47.391C6.109,47.813,6.249,48.189,6.531,48.516L6.578,48.516C6.859,48.846,7.236,48.987,7.705,48.987C8.129,48.987,8.504,48.846,8.834,48.516L19.686,37.664L26.686,44.665C27.391,45.368,28.237,45.699,29.315,45.699C30.35,45.699,31.196,45.368,31.948,44.665L31.948,44.617C32.653,43.913,33.028,43.019,33.028,41.985C33.028,41.001,32.653,40.107,31.948,39.355L42.282,27.61C42.94,28.222,43.739,28.549,44.632,28.598C45.573,28.549,46.323,28.222,47.028,27.61L47.028,27.564C47.686,26.907,48.014,26.107,48.061,25.168C48.014,24.275,47.686,23.477,47.028,22.819z" opacity="0.5" stroke-opacity="0.5"/>
    <linearGradient x1="13.4478" y1="38.6709" x2="15.3632" gradientUnits="userSpaceOnUse" y2="40.5878" id="SVGID_1_">
      <stop stop-color="#FFFFFF" offset="0"/>
      <stop stop-color="#CCCCCC" offset="1"/>
    </linearGradient>
    <path fill="url(#SVGID_1_)" d="M6.531,45.262C6.25,45.543,6.061,45.919,6.061,46.391C6.109,46.813,6.249,47.189,6.531,47.516L6.578,47.516C6.859,47.846,7.236,47.987,7.705,47.987C8.129,47.987,8.504,47.846,8.834,47.516L22.269,34.081C22.598,33.798,22.741,33.422,22.741,32.954C22.787,32.483,22.598,32.106,22.317,31.779L22.269,31.779C21.988,31.449,21.612,31.308,21.142,31.308C20.672,31.308,20.296,31.496,20.015,31.779L6.531,45.262z"/>
    <linearGradient x1="56.5337" y1="-0.5005" x2="11.1311" gradientUnits="userSpaceOnUse" y2="40.3802" id="SVGID_2_">
      <stop stop-color="#FF7833" offset="0"/>
      <stop stop-color="#B52B2B" offset="1"/>
    </linearGradient>
    <path fill="url(#SVGID_2_)" d="M27.531,7.068C28.188,6.409,28.989,6.082,29.928,6.082C30.819,6.082,31.664,6.409,32.276,7.068L47.028,21.819C47.686,22.476,48.014,23.275,48.061,24.168C48.014,25.107,47.686,25.907,47.028,26.564L47.028,26.61C46.323,27.222,45.573,27.549,44.632,27.598C43.739,27.549,42.941,27.222,42.282,26.61L27.532,11.813C26.874,11.201,26.546,10.403,26.546,9.463C26.546,8.523,26.827,7.725,27.532,7.114L27.532,7.068z"/>
    <linearGradient x1="59.9644" y1="-1.9878" x2="14.6338" gradientUnits="userSpaceOnUse" y2="38.828" id="SVGID_3_">
      <stop stop-color="#FF7833" offset="0"/>
      <stop stop-color="#B52B2B" offset="1"/>
    </linearGradient>
    <path fill="url(#SVGID_3_)" d="M10.479,22.148C11.183,21.443,12.028,21.114,13.109,21.114C14.143,21.114,14.989,21.443,15.694,22.148L31.948,38.355C32.653,39.107,33.028,40.001,33.028,40.985C33.028,42.019,32.653,42.913,31.948,43.617L31.948,43.665C31.196,44.368,30.35,44.699,29.315,44.699C28.237,44.699,27.391,44.368,26.686,43.665L10.431,27.409C9.726,26.705,9.397,25.812,9.397,24.778C9.396,23.792,9.726,22.9,10.479,22.148L10.479,22.148z"/>
    <linearGradient x1="10.0381" y1="5.4067" x2="39.7084" gradientUnits="userSpaceOnUse" y2="35.077" id="SVGID_4_">
      <stop stop-color="#FF7833" offset="0"/>
      <stop stop-color="#B52B2B" offset="1"/>
    </linearGradient>
    <polygon fill="url(#SVGID_4_)" points="15.693,22.148 27.531,11.813 42.282,26.61 31.948,38.355"/>
    <linearGradient x1="37.4048" y1="14.4644" x2="35.0782" gradientUnits="userSpaceOnUse" y2="16.5592" id="SVGID_5_">
      <stop stop-color="#FF7833" offset="0"/>
      <stop stop-color="#B52B2B" offset="1"/>
    </linearGradient>
    <path fill="url(#SVGID_5_)" d="M28.096,7.632C28.612,7.115,29.27,6.88,30.116,6.926C30.915,7.021,31.62,7.35,32.229,7.96L46.086,21.867L31.711,8.523C31.055,7.96,30.397,7.537,29.691,7.349C29.034,7.161,28.469,7.302,28.096,7.632z"/>
    <linearGradient x1="22.4233" y1="17.8149" x2="29.736" gradientUnits="userSpaceOnUse" y2="25.1276" id="SVGID_6_">
      <stop stop-color="#FF7833" offset="0"/>
      <stop stop-color="#B52B2B" offset="1"/>
    </linearGradient>
    <path fill="url(#SVGID_6_)" d="M18.183,22.289C19.31,23.699,20.156,25.06,20.72,26.282L16.821,22.336L27.673,12.893C24.665,16.37,21.518,19.471,18.183,22.289z"/>
    <linearGradient x1="21.9092" y1="28.3584" x2="18.2108" gradientUnits="userSpaceOnUse" y2="31.6885" id="SVGID_7_">
      <stop stop-color="#FF7833" offset="0"/>
      <stop stop-color="#B52B2B" offset="1"/>
    </linearGradient>
    <path fill="url(#SVGID_7_)" d="M10.619,22.759C11.228,22.101,12.027,21.82,13.108,21.867C14.142,21.96,15.035,22.384,15.834,23.181L29.739,37.087L15.129,23.885C14.376,23.086,13.532,22.616,12.639,22.383C11.746,22.148,11.088,22.289,10.619,22.759z"/>
  </g>
</svg>
