<?xml version="1.0" encoding="UTF-8"?>
<svg xmlns="http://www.w3.org/2000/svg" xmlns:xlink="http://www.w3.org/1999/xlink" contentScriptType="text/ecmascript" zoomAndPan="magnify" baseProfile="tiny" contentStyleType="text/css" version="1.1" width="65px" preserveAspectRatio="xMidYMid meet" viewBox="0 0 65 65" height="65px" x="0px" y="0px">
    <g>
        <path d="M 31.61 5.667 C 18.09 5.667 2.5500011 12.625999 2.5500011 22.208 C 2.5500011 26.382 3.9940012 30.218 15.150002 30.93 C 18.313002 31.132 21.711002 33.603 18.550001 36.761 C 16.136002 39.177002 15.884001 41.324 15.884001 42.942 C 15.884001 53.502003 35.324 53.68 36.667 53.68 C 44.664 53.68 62.225 49.411 62.225 30.388 C 62.225 14.192 45.762 5.667 31.61 5.667 z M 30.873 37.313 C 29.313 37.313 28.519 35.891 28.519 34.959 C 28.519 34.025 29.355 32.605 30.873 32.605 C 32.394 32.605 33.226997 33.968 33.226997 34.959 C 33.227 35.953 32.438 37.313 30.873 37.313 z " fill-opacity="0.2"/>
        <path d="M 4.865 21.539 C 3.4299998 25.188 6.1309996 28.394 15.271999 28.977 C 20.032999 29.281 22.462 32.615997 22.462 35.406 C 22.462 37.540997 21.053 38.972 19.933 40.093998 C 12.848001 47.177998 26.07 51.723 36.667 51.723 C 48.473 51.723 60.275 43.992 60.271 31.494 C 60.266 19.502 7.023 16.054 4.865 21.539 z M 35.23 34.988 C 35.23 37.383 33.288 39.324997 30.894 39.324997 C 28.498999 39.324997 26.557999 37.382996 26.557999 34.988 C 26.557999 32.592 28.499998 30.651999 30.894 30.651999 C 33.288 30.653 35.23 32.596 35.23 34.988 z " fill-opacity="0.5"/>
        <linearGradient x1="1126.3867" gradientTransform="matrix(1 0 0 1 -1094 -1454)" y1="1468.3223" x2="1126.3867" gradientUnits="userSpaceOnUse" y2="1509.5771" xlink:type="simple" xlink:actuate="onLoad" id="SVGID_1_" xlink:show="other">
            <stop stop-color="#ffffff" offset="0"/>
            <stop stop-color="#b2b2b2" offset="1"/>
        </linearGradient>
        <path fill="url(#SVGID_1_)" d="M 31.61 7.625 C 9.874001 7.625 -7.625 25.569 15.271 27.026 C 20.032 27.328 22.462 30.664 22.462 33.454998 C 22.462 35.588997 21.052 37.020996 19.933 38.142998 C 12.847 45.226997 26.07 49.774 36.668 49.774 C 48.471 49.774 60.273 42.041 60.272 29.540998 C 60.266 17.55 47.541 7.625 31.61 7.625 z M 30.878 38.18 C 28.493 38.18 25.436 35.257 25.436 32.876 C 25.436 30.498999 28.493 27.556 30.878 27.556 C 33.253 27.556 36.546 30.501 36.546 32.876 C 36.546 35.258 33.255 38.18 30.878 38.18 z "/>
        <linearGradient x1="1124.8965" gradientTransform="matrix(1 0 0 1 -1094 -1454)" y1="1493.4043" x2="1124.8965" gradientUnits="userSpaceOnUse" y2="1480.6709" xlink:type="simple" xlink:actuate="onLoad" id="SVGID_2_" xlink:show="other">
            <stop stop-color="#ffffff" offset="0"/>
            <stop stop-color="#b2b2b2" offset="1"/>
        </linearGradient>
        <path fill="url(#SVGID_2_)" d="M 30.895 26.671 C 27.380001 26.671 24.529 29.521 24.529 33.037 C 24.529 36.551 27.38 39.404 30.895 39.404 C 34.411 39.404 37.264 36.55 37.264 33.037 C 37.264 29.521 34.41 26.671 30.895 26.671 z M 30.895 37.372 C 28.5 37.372 26.559 35.43 26.559 33.034 C 26.559 30.638 28.501 28.698 30.895 28.698 C 33.289 28.698 35.23 30.639 35.23 33.034 C 35.23 35.43 33.288 37.372 30.895 37.372 z "/>
        <linearGradient x1="1122.2373" gradientTransform="matrix(1 0 0 1 -1094 -1454)" y1="1475.3789" x2="1122.2373" gradientUnits="userSpaceOnUse" y2="1464.7236" xlink:type="simple" xlink:actuate="onLoad" id="SVGID_3_" xlink:show="other">
            <stop stop-color="#ffffff" offset="0"/>
            <stop stop-color="#b2b2b2" offset="1"/>
        </linearGradient>
        <path fill="url(#SVGID_3_)" d="M 33.563 16.054 C 33.563 13.115001 31.171 10.7230015 28.236 10.7230015 C 25.304 10.7230015 22.912 13.116001 22.912 16.054 C 22.912 18.988 25.305 21.379002 28.236 21.379002 C 31.17 21.379 33.563 18.989 33.563 16.054 z "/>
        <circle fill="#79cd19" r="3.373" cx="28.237" cy="16.053"/>
        <linearGradient x1="1110.4375" gradientTransform="matrix(1 0 0 1 -1094 -1454)" y1="1478.748" x2="1110.4375" gradientUnits="userSpaceOnUse" y2="1468.0986" xlink:type="simple" xlink:actuate="onLoad" id="SVGID_4_" xlink:show="other">
            <stop stop-color="#ffffff" offset="0"/>
            <stop stop-color="#b2b2b2" offset="1"/>
        </linearGradient>
        <path fill="url(#SVGID_4_)" d="M 16.438 14.098 C 13.500999 14.098 11.113 16.487999 11.113 19.425999 C 11.113 22.363998 13.500999 24.748 16.438 24.748 C 19.372 24.748 21.764 22.363998 21.764 19.425999 C 21.765 16.488 19.371 14.098 16.438 14.098 z "/>
        <circle fill="#ea2227" r="3.371" cx="16.438" cy="19.424"/>
        <linearGradient x1="1134.0439" gradientTransform="matrix(1 0 0 1 -1094 -1454)" y1="1477.0645" x2="1134.0439" gradientUnits="userSpaceOnUse" y2="1466.4111" xlink:type="simple" xlink:actuate="onLoad" id="SVGID_5_" xlink:show="other">
            <stop stop-color="#ffffff" offset="0"/>
            <stop stop-color="#b2b2b2" offset="1"/>
        </linearGradient>
        <path fill="url(#SVGID_5_)" d="M 40.044 23.064 C 42.976997 23.064 45.369 20.675999 45.369 17.737 C 45.369 14.8029995 42.975998 12.410999 40.044 12.410999 C 37.107 12.410999 34.718998 14.8029995 34.718998 17.737 C 34.717 20.675 37.107 23.064 40.044 23.064 z "/>
        <path fill="#3687ff" d="M 40.042 21.109 C 41.906 21.109 43.416 19.601 43.416 17.736 C 43.416 15.876 41.908 14.3619995 40.042 14.3619995 C 38.182 14.3619995 36.667 15.875 36.667 17.736 C 36.67 19.602 38.182 21.109 40.042 21.109 z "/>
    </g>
    <g>
        <polygon points="26.911,40.732 26.937,40.739 39.047,45.066 43.381,57.189 47.711,45.066 59.844,40.732    59.832,40.732 56.073,39.393 30.581,39.421  " fill-opacity="0.5"/>
        <linearGradient x1="-1072.4731" gradientTransform="matrix(-1 0 0 1 -1029.0957 -2181)" y1="2207.3447" x2="-1072.4731" gradientUnits="userSpaceOnUse" y2="2257.1973" xlink:type="simple" xlink:actuate="onLoad" id="SVGID_6_" xlink:show="other">
            <stop stop-color="#ffe23d" offset="0"/>
            <stop stop-color="#e48717" offset="1"/>
        </linearGradient>
        <polygon fill="url(#SVGID_6_)" points="26.911,39.421 26.937,39.43 39.047,43.755 43.381,55.881 47.711,43.755 59.844,39.421    59.832,39.421 47.702,35.09 43.369,22.96 39.039,35.09  "/>
        <polygon points="26.911,39.421 26.937,39.43 39.047,43.755 43.381,55.881 47.711,43.755 59.844,39.421    59.832,39.421 55.936,39.426 46.684,42.729 43.381,51.98 40.076,42.729 30.814,39.419  " fill-opacity="0.2"/>
        <polygon fill="#ffffff" fill-opacity="0.35" points="55.936,39.426 59.832,39.421 47.702,35.09 43.369,22.96 39.039,35.09    26.911,39.421 30.814,39.419 40.066,36.12 43.369,26.862 46.676,36.12  "/>
    </g>
    <g>
        <path d="M 19.123 61.898 L 22.223999 52.585 L 31.532999 49.482 L 27.481998 48.133 L 10.76 48.133 L 6.709 49.482 C 6.709 49.482 14.851 52.202 16.022 52.585 C 16.409 53.757 19.123 61.898 19.123 61.898 z " fill-opacity="0.5"/>
        <linearGradient x1="-1048.2168" gradientTransform="matrix(-1 0 0 1 -1029.0957 -2181)" y1="2216.7393" x2="-1048.2168" gradientUnits="userSpaceOnUse" y2="2270.1416" xlink:type="simple" xlink:actuate="onLoad" id="SVGID_7_" xlink:show="other">
            <stop stop-color="#ffe23d" offset="0"/>
            <stop stop-color="#e48717" offset="1"/>
        </linearGradient>
        <path fill="url(#SVGID_7_)" d="M 19.123 60.587 L 22.223999 51.277 L 31.532999 48.174 C 31.532999 48.174 23.387999 45.463 22.223999 45.072 C 21.832998 43.907997 19.123 35.766 19.123 35.766 C 19.123 35.766 16.41 43.907997 16.022 45.072 C 14.855 45.467 6.7089996 48.174 6.7089996 48.174 C 6.7089996 48.174 14.851 50.892 16.022 51.277 C 16.409 52.445 19.123 60.587 19.123 60.587 z "/>
        <path d="M 6.708 48.175 C 6.708 48.175 14.851 50.895 16.021 51.279 C 16.406 52.447 19.121 60.591 19.121 60.591 C 19.121 60.591 21.831001 52.45 22.221 51.279 C 23.167 50.966 31.532001 48.175 31.532001 48.175 L 27.388 48.176 L 21.187 50.241997 L 19.122 56.436996 L 17.060999 50.237995 L 10.860999 48.174995 L 6.708 48.175 z " fill-opacity="0.2"/>
        <path fill="#ffffff" d="M 6.709 48.174 L 10.859 48.175 C 13.1710005 47.403 17.059 46.106 17.059 46.106 L 19.12 39.918 C 19.888 42.228 21.186 46.107998 21.186 46.107998 C 21.186 46.107998 25.075 47.405 27.386002 48.175 L 31.530003 48.174 C 31.530003 48.174 23.385002 45.461 22.218002 45.07 C 21.829002 43.904 19.119003 35.765 19.119003 35.765 C 19.119003 35.765 16.406004 43.904 16.019003 45.07 C 14.855 45.465 6.709 48.175 6.709 48.174 z " fill-opacity="0.35"/>
    </g>
</svg>
