<?xml version="1.0" encoding="utf-8"?>
<!-- Generator: Adobe Illustrator 13.0.2, SVG Export Plug-In . SVG Version: 6.00 Build 14948)  -->
<svg version="1.2" baseProfile="tiny" id="Layer_1" xmlns="http://www.w3.org/2000/svg" xmlns:xlink="http://www.w3.org/1999/xlink"
	 x="0px" y="0px" width="80.441px" height="59.087px" viewBox="0 0 80.441 59.087" xml:space="preserve">
<path fill="#FFFFFF" d="M80.44,31.317c-0.167,22.666-19.499,28.666-36.333,27.666c-33.906-2.014-51.941-23.273-40.834-30.5
	c9.544-6.209-16.999-20.5,22.167-27.667C50.669-3.8,80.584,11.792,80.44,31.317z"/>
<linearGradient id="SVGID_1_" gradientUnits="userSpaceOnUse" x1="39.3438" y1="-7.397" x2="40.3862" y2="46.8092">
	<stop  offset="0" style="stop-color:#A3A3A3"/>
	<stop  offset="1" style="stop-color:#000000"/>
</linearGradient>
<path fill="url(#SVGID_1_)" d="M77.075,28.508c3.014,15.245-7.673,27.844-30.769,28.143c-26.71,0.344-52.289-20.977-40.784-26.49
	c11.843-5.677-16.221-21.197,20.15-26.463C49.633,0.229,73.66,11.239,77.075,28.508z"/>
<linearGradient id="SVGID_2_" gradientUnits="userSpaceOnUse" x1="39.1504" y1="28.793" x2="55.485" y2="91.1288">
	<stop  offset="0" style="stop-color:#FFFFFF"/>
	<stop  offset="1" style="stop-color:#000000"/>
</linearGradient>
<path fill="url(#SVGID_2_)" d="M73.773,28.317C75.59,42.19,66.835,53.65,45.94,53.65c-20.896,0-48.814-17.226-37.333-22.333
	C20.69,25.942-5.727,9.983,27.273,5.983C48.017,3.469,71.94,14.317,73.773,28.317z"/>
<linearGradient id="SVGID_3_" gradientUnits="userSpaceOnUse" x1="20.8564" y1="8.1362" x2="21.0234" y2="18.9692">
	<stop  offset="0" style="stop-color:#E8E8E8"/>
	<stop  offset="1" style="stop-color:#858585"/>
</linearGradient>
<circle fill="url(#SVGID_3_)" cx="20.982" cy="16.317" r="5"/>
<linearGradient id="SVGID_4_" gradientUnits="userSpaceOnUse" x1="36.7705" y1="0.9805" x2="36.4375" y2="16.9805">
	<stop  offset="0" style="stop-color:#DEDEDE"/>
	<stop  offset="1" style="stop-color:#696969"/>
</linearGradient>
<circle fill="url(#SVGID_4_)" cx="36.482" cy="14.817" r="5.5"/>
<linearGradient id="SVGID_5_" gradientUnits="userSpaceOnUse" x1="52.7588" y1="3.3608" x2="52.4248" y2="22.0287">
	<stop  offset="0" style="stop-color:#B0B0B0"/>
	<stop  offset="1" style="stop-color:#2B2B2B"/>
</linearGradient>
<circle fill="url(#SVGID_5_)" cx="52.482" cy="18.817" r="5.5"/>
<linearGradient id="SVGID_6_" gradientUnits="userSpaceOnUse" x1="64.4824" y1="13.6499" x2="64.4824" y2="30.9837">
	<stop  offset="0" style="stop-color:#696969"/>
	<stop  offset="1" style="stop-color:#171717"/>
</linearGradient>
<circle fill="url(#SVGID_6_)" cx="64.482" cy="28.817" r="5.5"/>
<circle cx="14.815" cy="35.484" r="3.5"/>
</svg>
