<?xml version="1.0" encoding="utf-8"?>
<!-- Generator: Adobe Illustrator 13.0.2, SVG Export Plug-In . SVG Version: 6.00 Build 14948)  -->
<!DOCTYPE svg PUBLIC "-//W3C//DTD SVG 1.1 Tiny//EN" "http://www.w3.org/Graphics/SVG/1.1/DTD/svg11-tiny.dtd">
<svg version="1.1" baseProfile="tiny" id="Layer_1" xmlns="http://www.w3.org/2000/svg" xmlns:xlink="http://www.w3.org/1999/xlink"
	 x="0px" y="0px" width="81.907px" height="70.616px" viewBox="0 0 81.907 70.616" xml:space="preserve">
<path fill="#FFFFFF" d="M80.44,42.846c-0.167,22.666-19.499,28.666-36.333,27.666c-33.906-2.014-51.941-23.273-40.834-30.5
	c9.544-6.209-16.999-20.499,22.167-27.666C50.669,7.729,80.584,23.32,80.44,42.846z"/>
<path fill="#4D4D4D" d="M77.075,40.037c3.014,15.245-7.673,27.844-30.769,28.143c-26.71,0.344-52.289-20.977-40.784-26.49
	c11.843-5.678-16.221-21.197,20.15-26.463C49.633,11.758,73.66,22.768,77.075,40.037z"/>
<path fill="#FFFFFF" d="M73.773,39.846c1.816,13.873-6.938,25.333-27.833,25.333c-20.896,0-48.814-17.226-37.333-22.333
	C20.69,37.471-5.727,21.512,27.273,17.512C48.017,14.998,71.94,25.846,73.773,39.846z"/>
<circle fill="#B3B3B3" cx="20.982" cy="27.846" r="5"/>
<circle fill="#999999" cx="36.482" cy="26.346" r="5.5"/>
<circle fill="#333333" cx="64.482" cy="40.346" r="5.5"/>
<circle cx="14.815" cy="47.013" r="3.5"/>
<polyline fill="#FFFFFF" points="52.685,39.316 39.694,42.344 42.89,30.352 "/>
<polyline fill="#FFFFFF" points="53.972,42.46 37.542,46.703 41.288,31.071 "/>
<polygon fill="#FFFFFF" points="53.902,42.495 41.267,31.117 69.754,0 81.907,11.061 "/>
<rect x="54.795" y="1.802" transform="matrix(0.7406 0.6719 -0.6719 0.7406 30.5889 -35.4043)" fill="#4D4D4D" width="12.717" height="40.234"/>
<polyline fill="#B3B3B3" points="51.954,41.44 39.672,44.231 42.581,32.982 "/>
<polyline fill="#231F20" points="43.878,43.24 39.751,44.247 40.735,40.256 "/>
</svg>
