<?xml version="1.0" encoding="utf-8"?>
<!-- Generator: Adobe Illustrator 13.0.2, SVG Export Plug-In . SVG Version: 6.00 Build 14948)  -->
<svg version="1.2" baseProfile="tiny" id="Layer_1" xmlns="http://www.w3.org/2000/svg" xmlns:xlink="http://www.w3.org/1999/xlink"
	 x="0px" y="0px" width="84.334px" height="80.21px" viewBox="0 0 84.334 80.21" xml:space="preserve">
<polygon fill="#FFFFFF" points="84.242,80.208 0,80.21 0,0 76.268,0.067 84.334,7.584 "/>
<linearGradient id="SVGID_1_" gradientUnits="userSpaceOnUse" x1="42.1665" y1="-41.2935" x2="42.1665" y2="47.374">
	<stop  offset="0" style="stop-color:#575757"/>
	<stop  offset="1" style="stop-color:#000000"/>
</linearGradient>
<polygon fill="url(#SVGID_1_)" points="80.75,76.708 3.5,76.71 3.5,4 73.438,4.062 80.834,10.875 "/>
<path fill="#B3B3B3" d="M70.366,75.373C70,75.252,15.5,75.374,15.5,75.374V40.738c0-1.444,1.343-2.614,3-2.614h48.866
	c1.657,0,3,1.17,3,2.614V75.373z"/>
<path fill="#FFFFFF" d="M66.002,2.734c-0.278,0.088-41.866,0.109-41.866,0.109l0.066,25.179c0.003,1.052,1.03,1.899,2.294,1.895
	l36.962,0.04c1.264-0.004,2.613-0.992,2.609-2.044L66.002,2.734z"/>
<rect x="52" y="5.374" fill="#1A1A1A" width="8.25" height="22.5"/>
</svg>
