<?xml version="1.0" encoding="utf-8"?>
<!-- Decoded by SVGB to SVG converter version 0.9.3 -->
<!DOCTYPE svg PUBLIC "-//W3C//DTD SVG 1.0//EN" "http://www.w3.org/TR/2001/REC-SVG-20010904/DTD/svg10.dtd">
<svg xmlns="http://www.w3.org/2000/svg" baseProfile="tiny" version="1.1" width="54" viewBox="0 0 54 54" height="54" x="0" y="0">
  <g>
    <rect width="54" fill="none" height="54"/>
    <path d="M47.58,7.417L46.86,8.109L47.565,7.401C46.651,6.474,45.445,5.99,44.19,5.999L42.18,5.999L11.669,5.999L9.72,5.999C8.444,5.989,7.221,6.473,6.328,7.417C5.411,8.28,4.928,9.509,4.94,10.809L4.94,45.249C4.928,46.508,5.426,47.689,6.328,48.612C7.236,49.491,8.42,50.005,9.72,49.998L44.19,49.998C44.198,49.998,44.205,49.998,44.212,49.998C45.483,49.998,46.642,49.485,47.534,48.655L47.568,48.622L47.605,48.581C48.431,47.663,48.916,46.508,48.908,45.249L48.908,10.81C48.917,9.51,48.448,8.31,47.58,7.417z" opacity="0.2" stroke-opacity="0.2"/>
    <path d="M46.859,8.11C46.109,7.36,45.21,7,44.189,7L42.179,7L11.67,7L9.72,7C8.67,7,7.77,7.36,7.05,8.11C6.3,8.83,5.94,9.73,5.94,10.81L5.94,45.25C5.94,46.27,6.3,47.141,7.05,47.92C7.77,48.609,8.67,49,9.72,49L44.19,49C45.211,49,46.11,48.609,46.86,47.92C47.55,47.141,47.91,46.27,47.91,45.25L47.91,10.81C47.909,9.73,47.55,8.83,46.859,8.11z" opacity="0.5" stroke-opacity="0.5"/>
    <linearGradient x1="26.9243" y1="-17.313" x2="26.9243" gradientUnits="userSpaceOnUse" y2="47.7651" id="SVGID_1_">
      <stop stop-color="#808080" offset="0"/>
      <stop stop-color="#666666" offset="1"/>
    </linearGradient>
    <path fill="url(#SVGID_1_)" d="M46.859,7.11C46.109,6.36,45.21,6,44.189,6L9.72,6C8.67,6,7.77,6.36,7.05,7.11C6.3,7.83,5.94,8.73,5.94,9.81L5.94,44.25C5.94,45.27,6.3,46.141,7.05,46.92C7.77,47.609,8.67,48,9.72,48L44.19,48C45.211,48,46.11,47.609,46.86,46.92C47.55,46.141,47.91,45.27,47.91,44.25L47.91,9.81C47.909,8.73,47.55,7.83,46.859,7.11z"/>
    <linearGradient x1="26.9097" y1="26.0903" x2="26.9097" gradientUnits="userSpaceOnUse" y2="14.6583" id="SVGID_2_">
      <stop stop-color="#808080" offset="0"/>
      <stop stop-color="#666666" offset="1"/>
    </linearGradient>
    <path fill="url(#SVGID_2_)" d="M15.33,22.17C14.159,22.17,13.17,21.75,12.359,20.91C11.819,20.43,11.46,19.83,11.309,19.17L11.459,20.43C12.059,22.14,13.379,22.98,15.329,22.95L38.549,22.95C40.439,22.98,41.729,22.14,42.329,20.46L42.509,19.38C42.329,19.98,41.999,20.46,41.488,20.91C40.709,21.75,39.718,22.17,38.549,22.17L15.33,22.17z"/>
    <linearGradient x1="26.9399" y1="61.6094" x2="26.9399" gradientUnits="userSpaceOnUse" y2="34.7718" id="SVGID_3_">
      <stop stop-color="#808080" offset="0"/>
      <stop stop-color="#666666" offset="1"/>
    </linearGradient>
    <path fill="url(#SVGID_3_)" d="M43.8,47.28C44.699,47.28,45.48,46.95,46.11,46.29C46.77,45.631,47.1,44.881,47.1,43.95L47.1,38.58L46.68,43.92C46.68,44.609,46.35,45.24,45.75,45.78C45.18,46.29,44.489,46.53,43.8,46.53L10.08,46.53C9.359,46.53,8.76,46.29,8.189,45.78C7.649,45.24,7.29,44.609,7.229,43.92C7.109,43.29,7.019,42.09,6.929,40.35L6.779,40.35L6.779,43.951C6.779,44.882,7.109,45.632,7.739,46.291C8.399,46.951,9.179,47.281,10.08,47.281L43.8,47.281z"/>
    <linearGradient x1="4.1445" y1="39.1201" x2="6.7735" gradientUnits="userSpaceOnUse" y2="39.1201" id="SVGID_4_">
      <stop stop-color="#808080" offset="0"/>
      <stop stop-color="#666666" offset="1"/>
    </linearGradient>
    <polygon fill="url(#SVGID_4_)" points="6.779,40.35 6.93,40.35 6.779,37.891"/>
    <linearGradient x1="44.9092" y1="10.9932" x2="44.9092" gradientUnits="userSpaceOnUse" y2="24.5599" id="SVGID_5_">
      <stop stop-color="#808080" offset="0"/>
      <stop stop-color="#666666" offset="1"/>
    </linearGradient>
    <path fill="url(#SVGID_5_)" d="M46.17,7.65C45.51,6.99,44.76,6.66,43.83,6.66L42.659,6.66L44.489,7.08C45.75,7.65,46.38,8.61,46.409,10.02L47.159,35.58L47.159,10.02C47.159,9.09,46.83,8.28,46.17,7.65z"/>
    <linearGradient x1="8.9395" y1="10.9805" x2="8.9395" gradientUnits="userSpaceOnUse" y2="24.546" id="SVGID_6_">
      <stop stop-color="#808080" offset="0"/>
      <stop stop-color="#666666" offset="1"/>
    </linearGradient>
    <path fill="url(#SVGID_6_)" d="M7.71,7.68C7.05,8.31,6.689,9.09,6.689,10.02L6.689,34.561L7.409,10.02C7.409,8.73,8.099,7.74,9.42,7.05L11.19,6.66L10.05,6.66C9.12,6.66,8.34,6.99,7.71,7.68z"/>
    <linearGradient x1="26.9243" y1="-6.8662" x2="26.9243" gradientUnits="userSpaceOnUse" y2="25.9672" id="SVGID_7_">
      <stop stop-color="#FFFFFF" offset="0"/>
      <stop stop-color="#CCCCCC" offset="1"/>
    </linearGradient>
    <path fill="url(#SVGID_7_)" d="M42.18,6L11.67,6L11.64,6.18L11.64,17.88C11.64,18.93,12.03,19.83,12.75,20.58C13.5,21.33,14.399,21.69,15.449,21.69L38.429,21.69C39.479,21.69,40.379,21.33,41.099,20.58C41.849,19.83,42.209,18.93,42.209,17.88L42.209,6.18L42.18,6zM19.05,16.86C19.05,17.28,18.93,17.58,18.659,17.881C18.359,18.181,18.029,18.36,17.609,18.36C17.159,18.36,16.71,18.18,16.229,17.881C15.659,17.581,15.389,17.251,15.389,16.86L15.389,9.99C15.389,9.63,15.659,9.3,16.229,8.97C16.709,8.7,17.159,8.55,17.609,8.55C18.059,8.55,18.389,8.7,18.659,8.97C18.93,9.24,19.05,9.6,19.05,9.99L19.05,16.86z"/>
    <linearGradient x1="26.939" y1="5.0107" x2="26.939" gradientUnits="userSpaceOnUse" y2="24.0344" id="SVGID_8_">
      <stop stop-color="#FFFFFF" offset="0"/>
      <stop stop-color="#CCCCCC" offset="1"/>
    </linearGradient>
    <polygon fill="url(#SVGID_8_)" points="41.069,7.11 41.85,11.73 41.85,6.36 12.029,6.36 12.029,12.24 12.81,7.11"/>
    <path fill="#A6A6A6" d="M42.09,29.43C41.88,28.44,41.43,27.631,40.739,27.031C40.05,26.371,39.239,26.041,38.37,26.041L15.51,26.041C14.61,26.041,13.83,26.371,13.14,27.031C12.45,27.631,12,28.44,11.76,29.43C11.67,29.76,11.64,30.151,11.67,30.54L11.67,39.061C11.64,39.481,11.699,39.93,11.85,40.381C12.06,41.28,12.51,42.061,13.2,42.66C13.86,43.26,14.64,43.56,15.511,43.56L38.371,43.56C39.211,43.56,39.99,43.259,40.681,42.66C41.311,42.06,41.761,41.28,42.031,40.381C42.151,39.93,42.212,39.481,42.241,39.061L42.241,30.54C42.239,30.15,42.21,29.76,42.09,29.43z"/>
  </g>
</svg>
