<?xml version="1.0" encoding="utf-8"?>
<!-- Generator: Adobe Illustrator 13.0.2, SVG Export Plug-In . SVG Version: 6.00 Build 14948)  -->
<svg version="1.2" baseProfile="tiny" id="Layer_1" xmlns="http://www.w3.org/2000/svg" xmlns:xlink="http://www.w3.org/1999/xlink"
	 x="0px" y="0px" width="134.917px" height="80.21px" viewBox="0 0 134.917 80.21" xml:space="preserve">
<g>
	<polyline fill="#FFFFFF" points="25.549,21.374 45.654,37.301 25.5,53.542 	"/>
	<rect y="31.376" fill="#FFFFFF" width="31.167" height="13.833"/>
</g>
<polygon fill="#FFFFFF" points="50.675,0.002 134.917,0 134.917,80.21 58.649,80.143 50.583,72.626 "/>
<linearGradient id="SVGID_1_" gradientUnits="userSpaceOnUse" x1="92.7505" y1="-72.6255" x2="92.7505" y2="43.3753">
	<stop  offset="0" style="stop-color:#575757"/>
	<stop  offset="1" style="stop-color:#000000"/>
</linearGradient>
<polygon fill="url(#SVGID_1_)" points="54.167,3.502 131.417,3.5 131.417,76.21 61.48,76.148 54.083,69.335 "/>
<path fill="#B3B3B3" d="M64.551,4.837c0.366,0.121,54.866-0.001,54.866-0.001v34.636c0,1.444-1.344,2.614-3,2.614H67.551
	c-1.657,0-3-1.17-3-2.614V4.837z"/>
<path fill="#FFFFFF" d="M68.916,77.476c0.278-0.088,41.865-0.109,41.865-0.109l-0.066-25.179c-0.003-1.052-1.029-1.899-2.294-1.895
	l-36.962-0.04c-1.264,0.004-2.613,0.992-2.609,2.044L68.916,77.476z"/>
<rect x="74.667" y="52.336" width="8.25" height="22.5"/>
</svg>
