<?xml version="1.0" encoding="utf-8"?>
<!-- Generator: Adobe Illustrator 12.0.1, SVG Export Plug-In . SVG Version: 6.00 Build 51448)  -->
<!DOCTYPE svg PUBLIC "-//W3C//DTD SVG 1.1//EN" "http://www.w3.org/Graphics/SVG/1.1/DTD/svg11.dtd" [
	<!ENTITY ns_svg "http://www.w3.org/2000/svg">
	<!ENTITY ns_xlink "http://www.w3.org/1999/xlink">
]>
<svg  version="1.1" id="Layer_1" xmlns="&ns_svg;" xmlns:xlink="&ns_xlink;" width="60" height="60" viewBox="0 0 60 60"
	 overflow="visible" enable-background="new 0 0 60 60" xml:space="preserve">
<rect x="-0.001" fill="#FFFFFF" fill-opacity="0.6" width="60" height="60"/>
<path d="M46.238,18.018l5.386-4.635c-0.103-0.039-0.21-0.065-0.324-0.065H8.723l5.125,4.701L46.238,18.018L46.238,18.018z
	 M47.064,18.97v21.989l5.181,4.752v-31.2L47.064,18.97z M14.032,41.98l-5.437,4.68c0.036,0.004,0.067,0.021,0.104,0.021h42.6
	c0.04,0,0.075-0.021,0.113-0.021l-5.1-4.68H14.032z M12.832,18.794l-5.056-4.639c-0.004,0.037-0.021,0.068-0.021,0.104v31.46
	l5.077-4.369V18.794z"/>
</svg>
