<?xml version="1.0" encoding="utf-8"?>
<!-- Generator: Adobe Illustrator 12.0.1, SVG Export Plug-In . SVG Version: 6.00 Build 51448)  -->
<!DOCTYPE svg PUBLIC "-//W3C//DTD SVG 1.1//EN" "http://www.w3.org/Graphics/SVG/1.1/DTD/svg11.dtd" [
	<!ENTITY ns_svg "http://www.w3.org/2000/svg">
	<!ENTITY ns_xlink "http://www.w3.org/1999/xlink">
]>
<svg  version="1.1" id="Layer_1" xmlns="&ns_svg;" xmlns:xlink="&ns_xlink;" width="60" height="60" viewBox="0 0 60 60"
	 overflow="visible" enable-background="new 0 0 60 60" xml:space="preserve">
<rect x="-0.001" y="-0.001" fill="#FFFFFF" fill-opacity="0.6" width="60" height="60"/>
<g>
	<path fill="#FFFFFF" stroke="#231F20" stroke-width="1.9066" d="M53.962,29.992c0,0-6.782,16.021-23.962,16.021
		c-15.766,0-23.962-16.021-23.962-16.021S12.94,13.985,30,13.985C46.579,13.983,53.962,29.992,53.962,29.992z"/>
	<path fill="#FFFFFF" stroke="#000000" stroke-width="2.8167" d="M53.962,29.992c0,0-6.782,16.021-23.962,16.021
		c-15.766,0-23.962-16.021-23.962-16.021S12.94,13.985,30,13.985C46.579,13.983,53.962,29.992,53.962,29.992z"/>
	<path fill="#231F20" d="M30.037,17.904c6.831,0,12.371,5.489,12.371,12.261c0,6.77-5.54,12.256-12.371,12.256
		c-6.836,0-12.379-5.486-12.379-12.256C17.658,23.394,23.201,17.904,30.037,17.904z"/>
	<path fill="#FFFFFF" d="M34.221,30.162c0,2.294-1.875,4.147-4.182,4.147c-2.326,0-4.2-1.854-4.2-4.147
		c0-2.299,1.874-4.153,4.2-4.153C32.346,26.009,34.221,27.863,34.221,30.162z"/>
	<path d="M30.037,17.904c6.831,0,12.371,5.489,12.371,12.261c0,6.77-5.54,12.256-12.371,12.256c-6.836,0-12.379-5.486-12.379-12.256
		C17.658,23.394,23.201,17.904,30.037,17.904z"/>
	<path fill="#FFFFFF" d="M34.707,30.162c0,2.557-2.098,4.628-4.668,4.628c-2.594,0-4.679-2.071-4.679-4.628
		c0-2.562,2.085-4.633,4.679-4.633C32.609,25.529,34.707,27.6,34.707,30.162z"/>
</g>
</svg>
