<?xml version="1.0" encoding="utf-8"?>
<!-- Generator: Adobe Illustrator 12.0.1, SVG Export Plug-In . SVG Version: 6.00 Build 51448)  -->
<!DOCTYPE svg PUBLIC "-//W3C//DTD SVG 1.1//EN" "http://www.w3.org/Graphics/SVG/1.1/DTD/svg11.dtd" [
	<!ENTITY ns_svg "http://www.w3.org/2000/svg">
	<!ENTITY ns_xlink "http://www.w3.org/1999/xlink">
]>
<svg  version="1.1" id="Layer_1" xmlns="&ns_svg;" xmlns:xlink="&ns_xlink;" width="60" height="60" viewBox="0 0 60 60"
	 overflow="visible" enable-background="new 0 0 60 60" xml:space="preserve">
<rect x="0.003" y="0.024" fill="#FFFFFF" fill-opacity="0.6" width="59.999" height="60"/>
<path stroke="#000000" stroke-width="1.9483" d="M52.783,28.613h-9.2c-0.276-2.694-1.354-5.151-2.99-7.143l6.505-6.442
	c0.545-0.542,0.545-1.422,0-1.965c-0.545-0.542-1.437-0.538-1.979,0l-6.508,6.443c-2.008-1.62-4.485-2.689-7.207-2.966V7.435
	c0-0.769-0.629-1.39-1.399-1.39c-0.773,0-1.402,0.621-1.402,1.39v9.103c-2.722,0.274-5.204,1.344-7.217,2.962l-6.501-6.438
	c-0.547-0.542-1.438-0.542-1.98,0c-0.55,0.54-0.55,1.421-0.003,1.963l6.503,6.439c-1.638,1.992-2.717,4.452-2.993,7.148H7.217
	c-0.772,0-1.399,0.621-1.399,1.387c0,0.769,0.627,1.387,1.399,1.387h9.194c0.276,2.695,1.355,5.154,2.992,7.146L12.9,44.975
	c-0.547,0.541-0.543,1.422,0,1.963c0.546,0.541,1.437,0.541,1.983,0l6.503-6.441c2.013,1.621,4.495,2.688,7.215,2.961v9.109
	c0,0.764,0.629,1.389,1.402,1.389c0.772,0,1.399-0.625,1.399-1.389v-9.111c2.722-0.273,5.199-1.344,7.209-2.965l6.51,6.445
	c0.544,0.539,1.436,0.543,1.979,0c0.549-0.539,0.545-1.424,0-1.961l-6.51-6.447c1.637-1.988,2.715-4.445,2.991-7.141h9.201
	c0.771,0,1.399-0.617,1.399-1.387C54.182,29.234,53.553,28.613,52.783,28.613z"/>
</svg>
