<?xml version="1.0" encoding="utf-8"?>
<!-- Generator: Adobe Illustrator 12.0.1, SVG Export Plug-In . SVG Version: 6.00 Build 51448)  -->
<!DOCTYPE svg PUBLIC "-//W3C//DTD SVG 1.1//EN" "http://www.w3.org/Graphics/SVG/1.1/DTD/svg11.dtd" [
	<!ENTITY ns_svg "http://www.w3.org/2000/svg">
	<!ENTITY ns_xlink "http://www.w3.org/1999/xlink">
]>
<svg  version="1.1" id="Layer_1" xmlns="&ns_svg;" xmlns:xlink="&ns_xlink;" width="60" height="60" viewBox="0 0 60 60"
	 overflow="visible" enable-background="new 0 0 60 60" xml:space="preserve">
<rect x="-0.001" fill="#FFFFFF" fill-opacity="0.6" width="60" height="60"/>
<g>
	<path d="M52.893,29.999c0-2.619-2.562-4.989-6.707-6.706c1.715-4.144,1.854-7.631,0.002-9.482
		c-1.851-1.853-5.338-1.715-9.481,0.003C34.986,9.67,32.62,7.108,30,7.108c-2.616,0-4.987,2.562-6.702,6.706
		c-4.144-1.718-7.632-1.854-9.482-0.003c-1.854,1.851-1.716,5.338,0.001,9.482c-4.144,1.717-6.708,4.086-6.708,6.706
		c0,2.618,2.564,4.987,6.708,6.704c-1.717,4.143-1.854,7.631-0.001,9.48c1.851,1.852,5.339,1.713,9.48-0.004
		c1.717,4.146,4.088,6.711,6.704,6.711c2.62,0,4.986-2.564,6.704-6.711c4.146,1.717,7.633,1.854,9.483,0.004
		c1.85-1.853,1.713-5.341-0.002-9.48C50.328,34.986,52.893,32.617,52.893,29.999z"/>
	<circle fill="#FFFFFF" cx="30.001" cy="29.999" r="8.227"/>
</g>
</svg>
