<?xml version="1.0" encoding="utf-8"?>
<!-- Generator: Adobe Illustrator 12.0.1, SVG Export Plug-In . SVG Version: 6.00 Build 51448)  -->
<!DOCTYPE svg PUBLIC "-//W3C//DTD SVG 1.1//EN" "http://www.w3.org/Graphics/SVG/1.1/DTD/svg11.dtd" [
	<!ENTITY ns_svg "http://www.w3.org/2000/svg">
	<!ENTITY ns_xlink "http://www.w3.org/1999/xlink">
]>
<svg  version="1.1" id="Layer_1" xmlns="&ns_svg;" xmlns:xlink="&ns_xlink;" width="25" height="25" viewBox="0 0 25 25"
	 overflow="visible" enable-background="new 0 0 25 25" xml:space="preserve">
<rect fill="none" width="25" height="25"/>
<polygon fill="#FFFFFF" stroke="#FFFFFF" stroke-width="2" stroke-linejoin="round" points="22.523,12.5 19.367,9.342 
	19.367,11.291 13.708,11.291 13.708,5.633 15.656,5.633 12.5,2.477 9.343,5.633 11.292,5.633 11.292,11.291 5.633,11.291 
	5.633,9.342 2.476,12.5 5.633,15.656 5.633,13.707 11.292,13.707 11.292,19.366 9.343,19.366 12.5,22.523 15.656,19.366 
	13.708,19.366 13.708,13.707 19.367,13.707 19.367,15.656 "/>
<polygon points="22.523,12.5 19.367,9.342 19.367,11.291 13.708,11.291 13.708,5.633 15.656,5.633 12.5,2.477 9.343,5.633 
	11.292,5.633 11.292,11.291 5.633,11.291 5.633,9.342 2.476,12.5 5.633,15.656 5.633,13.707 11.292,13.707 11.292,19.366 
	9.343,19.366 12.5,22.523 15.656,19.366 13.708,19.366 13.708,13.707 19.367,13.707 19.367,15.656 "/>
</svg>
