<?xml version="1.0" encoding="utf-8"?>
<!-- Generator: Adobe Illustrator 12.0.1, SVG Export Plug-In . SVG Version: 6.00 Build 51448)  -->
<!DOCTYPE svg PUBLIC "-//W3C//DTD SVG 1.1//EN" "http://www.w3.org/Graphics/SVG/1.1/DTD/svg11.dtd" [
	<!ENTITY ns_svg "http://www.w3.org/2000/svg">
	<!ENTITY ns_xlink "http://www.w3.org/1999/xlink">
]>
<svg  version="1.1" id="Layer_1" xmlns="&ns_svg;" xmlns:xlink="&ns_xlink;" width="25" height="25" viewBox="0 0 25 25"
	 overflow="visible" enable-background="new 0 0 25 25" xml:space="preserve">
<rect fill="none" width="25" height="25"/>
<polygon stroke="#FFFFFF" stroke-width="2" points="21.504,3.688 5.883,3.688 5.883,11.24 3.496,11.24 3.496,21.311 13.665,21.311 
	13.665,19.309 21.504,19.309 "/>
<g>
	<g>
		<rect x="5.383" y="3.188" width="16.62" height="16.621"/>
		<path fill="#FFFFFF" d="M22.503,2.688h-1H5.882h-1v1v15.621v1h1h15.621h1v-1V3.688V2.688L22.503,2.688z M5.882,3.688h15.621
			v15.621l0,0l0,0H5.882V3.688L5.882,3.688L5.882,3.688z"/>
	</g>
	<g>
		<g>
			<rect x="3.019" y="10.763" width="11.123" height="11.024"/>
			<path fill="#FFFFFF" d="M14.618,10.286h-0.954H3.496H2.542v0.954v10.07v0.954h0.954h10.168h0.954v-0.954V11.24V10.286
				L14.618,10.286z M3.496,11.24h10.168v10.07l0,0l0,0H3.496V11.24L3.496,11.24L3.496,11.24z"/>
		</g>
	</g>
</g>
</svg>
