<?xml version="1.0" encoding="utf-8"?>
<!-- Generator: Adobe Illustrator 12.0.1, SVG Export Plug-In . SVG Version: 6.00 Build 51448)  -->
<!DOCTYPE svg PUBLIC "-//W3C//DTD SVG 1.1//EN" "http://www.w3.org/Graphics/SVG/1.1/DTD/svg11.dtd" [
	<!ENTITY ns_svg "http://www.w3.org/2000/svg">
	<!ENTITY ns_xlink "http://www.w3.org/1999/xlink">
]>
<svg  version="1.1" id="Layer_1" xmlns="&ns_svg;" xmlns:xlink="&ns_xlink;" width="25" height="25" viewBox="0 0 25 25"
	 overflow="visible" enable-background="new 0 0 25 25" xml:space="preserve">
<rect y="0" fill="none" width="25" height="25"/>
<path fill="#FFFFFF" stroke="#FFFFFF" stroke-width="2" stroke-linejoin="round" d="M12.5,3.588c-4.903,0-8.885,3.904-9.028,8.775
	H1.839l2.362,4.09l2.363-4.09H4.878C5.021,8.27,8.374,4.994,12.5,4.994c4.217,0,7.637,3.419,7.637,7.636
	c0,3.553-2.434,6.53-5.722,7.382l0.229,1.399c3.957-0.963,6.896-4.529,6.896-8.782C21.541,7.635,17.494,3.588,12.5,3.588z"/>
<g>
	<path d="M12.5,3.588c-4.993,0-9.041,4.047-9.041,9.042c0,0.481,0.039,0.956,0.11,1.418l1.333-0.674
		c-0.023-0.248-0.037-0.495-0.037-0.745c0-4.217,3.419-7.636,7.635-7.636c4.217,0,7.637,3.419,7.637,7.636
		c0,3.553-2.434,6.53-5.722,7.382l0.229,1.399c3.957-0.963,6.896-4.529,6.896-8.782C21.541,7.635,17.494,3.588,12.5,3.588z"/>
	<polygon points="6.564,12.363 4.201,16.453 1.839,12.363 	"/>
</g>
</svg>
