<?xml version="1.0" encoding="UTF-8"?>
<!DOCTYPE svg PUBLIC "-//W3C//DTD SVG 1.1 Tiny//EN" "http://www.w3.org/Graphics/SVG/1.1/DTD/svg11-tiny.dtd">
<svg baseProfile="tiny" xmlns="http://www.w3.org/2000/svg" xmlns:xlink="http://www.w3.org/1999/xlink" width="13" height="244" viewBox="0 0 13 244">
<g>
<g>
<path fill="#FFFFFF" d="M0.002,6.456c0,0,0,0.429,0,0.667L0,237.463C0,241.084,2.916,244,6.5,244      s6.5-2.916,6.5-6.5c0,0-0.002-0.445-0.002-0.696L13,6.463C12.975,2.896,10.059,0,6.5,0C2.94,0,0.025,2.896,0.002,6.456z"/>
<g>
<path fill="url(#XMLID_2_)" d="M11.998,6.463C11.979,3.442,9.525,1,6.5,1C3.475,1,1.022,3.442,1.002,6.463H1       v231h0.002c0,0.013-0.002,0.024-0.002,0.037c0,3.038,2.462,5.5,5.5,5.5c3.037,0,5.5-2.462,5.5-5.5       c0-0.013-0.002-0.024-0.002-0.037H12v-231H11.998z"/>
<path fill="#05589F" d="M12.248,6.461C12.228,3.312,9.649,0.75,6.5,0.75c-3.148,0-5.727,2.562-5.748,5.711       l0.25-0.249h-0.25c-0.002,0-0.002,0.25-0.002,0.25v231v0.25H1l-0.248-0.25c-0.001,0.008-0.002,0.021-0.002,0.037       c0,3.171,2.58,5.75,5.75,5.75c3.171,0,5.75-2.579,5.75-5.75v-0.01c-0.001-0.019-0.002-0.028-0.002-0.028v-0.005l-0.25,0.256       h0.25c0.002,0,0.002-0.25,0.002-0.25v-231v-0.25H12L12.248,6.461z M11.75,6.463v231l0.25-0.25h-0.25       c-0.002,0-0.002,0.25-0.002,0.25v0.01c0.001,0.019,0.002,0.028,0.002,0.028v0.005c0,2.889-2.355,5.244-5.25,5.244       c-2.895,0-5.25-2.355-5.25-5.25c0.001-0.008,0.002-0.021,0.002-0.037v-0.25h-0.25l0.248,0.25v-231L1,6.713h0.249       c0.002,0,0.003-0.249,0.003-0.249C1.271,3.589,3.625,1.25,6.5,1.25c2.875,0,5.229,2.339,5.248,5.214l0.002,0.249h0.248       L11.75,6.463z"/>
<defs>
<linearGradient id="XMLID_2_" gradientUnits="userSpaceOnUse" x1="12" y1="122.0005" x2="1.0005" y2="122.0005">
<stop offset="0" style="stop-color:#FFFFFF"/>
<stop offset="0.2756" style="stop-color:#FBFBFB"/>
<stop offset="0.5612" style="stop-color:#EEEEEE"/>
<stop offset="0.8504" style="stop-color:#DADADA"/>
<stop offset="1" style="stop-color:#CCCCCC"/>
</linearGradient>
</defs>
</g>
</g>
</g>
</svg>
